<svg id="Layer_1" data-name="Layer 1" xmlns="http://www.w3.org/2000/svg" xmlns:xlink="http://www.w3.org/1999/xlink" viewBox="0 0 1165.69 1007.11"><defs><style>.cls-1{fill:url(#linear-gradient);}</style><linearGradient id="linear-gradient" x1="543.08" y1="767.99" x2="1421.27" y2="34.86" gradientUnits="userSpaceOnUse"><stop offset="0.07" stop-color="#2e3192"/><stop offset="0.46" stop-color="#2d3394"/><stop offset="0.62" stop-color="#29389b"/><stop offset="0.74" stop-color="#2342a8"/><stop offset="0.84" stop-color="#1950b9"/><stop offset="0.93" stop-color="#0d63d0"/><stop offset="1" stop-color="#0077e9"/></linearGradient></defs><title>top-background</title><path class="cls-1" d="M1117.5,776h-38a302,302,0,0,0,30.21-26.45l495-495L1180.42-169.69,951.23,59.5H807.5a9.5,9.5,0,0,0,0,19H932.24l-5.5,5.5H754a5,5,0,0,0,0,10H916.74L685.45,325.29A300.35,300.35,0,0,0,614.34,636.5H444a5,5,0,1,0,0,10H618c.71,1.84,1.44,3.68,2.21,5.5H497.5a9.5,9.5,0,1,0,0,19H628.88c2.26,4.55,4.66,9,7.16,13.5H742a7,7,0,0,1,0,14H644.44a300.94,300.94,0,0,0,41,51C784.72,848.83,936.27,864,1051.5,795h66a9.5,9.5,0,1,0,0-19Z" transform="translate(-439 169.69)"/></svg>